<svg width="34" height="34" viewBox="0 0 34 34" fill="none" xmlns="http://www.w3.org/2000/svg">
<path d="M14.9961 29.0034V24.3348C14.9961 23.2298 15.8919 22.334 16.9969 22.334V22.334C18.102 22.334 18.9978 23.2298 18.9978 24.3348V29.0034" stroke="#667080" stroke-width="1.5" stroke-linecap="round" stroke-linejoin="round"/>
<path d="M10.3281 29.0039V16.3319C10.3281 15.4218 10.7924 14.5745 11.5593 14.0843L15.561 11.5273C16.4369 10.9675 17.5582 10.9675 18.4342 11.5273L22.4358 14.0843C23.2028 14.5745 23.667 15.4218 23.667 16.3319V29.0039" stroke="#667080" stroke-width="1.5" stroke-linecap="round" stroke-linejoin="round"/>
<path d="M17 4.99414H22.3356V8.32886H17" stroke="#667080" stroke-width="1.5" stroke-linecap="round" stroke-linejoin="round"/>
<path d="M16.999 11.1074V4.99414" stroke="#667080" stroke-width="1.5" stroke-linecap="round" stroke-linejoin="round"/>
<path d="M16.9976 16.1083C16.8748 16.109 16.7757 16.209 16.7762 16.3319C16.7767 16.4548 16.8766 16.554 16.9994 16.5538C17.1223 16.5535 17.2217 16.4539 17.2217 16.331C17.2221 16.2716 17.1986 16.2145 17.1564 16.1726C17.1143 16.1307 17.0571 16.1075 16.9976 16.1083" stroke="#667080" stroke-width="1.5" stroke-linecap="round" stroke-linejoin="round"/>
<path d="M23.668 20.2724H26.3357" stroke="#667080" stroke-width="1.5" stroke-linecap="round" stroke-linejoin="round"/>
<path d="M23.668 24.2763H26.3357" stroke="#667080" stroke-width="1.5" stroke-linecap="round" stroke-linejoin="round"/>
<path d="M7.66016 20.2724H10.3279" stroke="#667080" stroke-width="1.5" stroke-linecap="round" stroke-linejoin="round"/>
<path d="M7.66016 24.2763H10.3279" stroke="#667080" stroke-width="1.5" stroke-linecap="round" stroke-linejoin="round"/>
<path d="M3.65991 29.0029H30.3377" stroke="#667080" stroke-width="1.5" stroke-linecap="round" stroke-linejoin="round"/>
<path d="M4.99219 29.003V16.998C4.99219 16.2613 5.58939 15.6641 6.32608 15.6641H10.3277" stroke="#667080" stroke-width="1.5" stroke-linecap="round" stroke-linejoin="round"/>
<path d="M29.0035 29.003V16.998C29.0035 16.2613 28.4063 15.6641 27.6696 15.6641H23.668" stroke="#667080" stroke-width="1.5" stroke-linecap="round" stroke-linejoin="round"/>
</svg>
