<svg width="99" height="34" viewBox="0 0 99 34" fill="none" xmlns="http://www.w3.org/2000/svg">
<path d="M13.4005 4.25V0H0.000488281V29.2H13.4005V24.95C10.6555 24.95 8.02289 23.8595 6.08193 21.9185C4.14093 19.9775 3.05049 17.345 3.05049 14.6C3.05049 11.855 4.14093 9.22241 6.08193 7.28145C8.02289 5.34045 10.6555 4.25 13.4005 4.25Z" fill="#667080"/>
<path d="M13.4004 4.25V24.95C16.1454 24.95 18.778 23.8595 20.719 21.9185C22.66 19.9775 23.7504 17.345 23.7504 14.6C23.7504 11.855 22.66 9.22241 20.719 7.28145C18.778 5.34045 16.1454 4.25 13.4004 4.25Z" fill="#667080"/>
<path d="M30.0147 21.5996V7.05415H33.09V13.4675H33.2817L38.5161 7.05415H42.2022L36.8045 13.5669L42.2661 21.5996H38.5871L34.6028 15.6195L33.09 17.4661V21.5996H30.0147ZM47.4751 21.8127C46.3719 21.8127 45.4178 21.5783 44.6129 21.1096C43.8127 20.6361 43.1948 19.9779 42.7592 19.1351C42.3236 18.2876 42.1058 17.3051 42.1058 16.1877C42.1058 15.0608 42.3236 14.0759 42.7592 13.2331C43.1948 12.3856 43.8127 11.7274 44.6129 11.2587C45.4178 10.7852 46.3719 10.5485 47.4751 10.5485C48.5784 10.5485 49.5301 10.7852 50.3302 11.2587C51.1352 11.7274 51.7554 12.3856 52.191 13.2331C52.6266 14.0759 52.8445 15.0608 52.8445 16.1877C52.8445 17.3051 52.6266 18.2876 52.191 19.1351C51.7554 19.9779 51.1352 20.6361 50.3302 21.1096C49.5301 21.5783 48.5784 21.8127 47.4751 21.8127ZM47.4893 19.4689C47.9912 19.4689 48.4103 19.3269 48.7464 19.0428C49.0826 18.754 49.3359 18.361 49.5064 17.8638C49.6816 17.3667 49.7692 16.8008 49.7692 16.1664C49.7692 15.5319 49.6816 14.9661 49.5064 14.4689C49.3359 13.9718 49.0826 13.5788 48.7464 13.29C48.4103 13.0011 47.9912 12.8567 47.4893 12.8567C46.9827 12.8567 46.5566 13.0011 46.2109 13.29C45.87 13.5788 45.612 13.9718 45.4368 14.4689C45.2663 14.9661 45.1811 15.5319 45.1811 16.1664C45.1811 16.8008 45.2663 17.3667 45.4368 17.8638C45.612 18.361 45.87 18.754 46.2109 19.0428C46.5566 19.3269 46.9827 19.4689 47.4893 19.4689ZM54.4118 10.6905H57.4373V22.1394C57.4373 22.9822 57.2716 23.664 56.9402 24.1848C56.6088 24.7057 56.1329 25.0868 55.5126 25.3283C54.8971 25.5698 54.1608 25.6905 53.3038 25.6905C53.1997 25.6905 53.1002 25.6882 53.0055 25.6834C52.9061 25.6834 52.8019 25.681 52.693 25.6763V23.3113C52.7735 23.316 52.8445 23.3184 52.9061 23.3184C52.9629 23.3231 53.0245 23.3255 53.0908 23.3255C53.5784 23.3255 53.9194 23.2213 54.1135 23.013C54.3123 22.8094 54.4118 22.5016 54.4118 22.0897V10.6905ZM55.9175 9.28427C55.4724 9.28427 55.0889 9.13512 54.7669 8.83682C54.4449 8.53379 54.2839 8.17158 54.2839 7.75018C54.2839 7.33351 54.4449 6.97603 54.7669 6.67773C55.0889 6.3747 55.4724 6.22319 55.9175 6.22319C56.372 6.22319 56.7579 6.3747 57.0751 6.67773C57.3971 6.97603 57.5581 7.33351 57.5581 7.75018C57.5581 8.17158 57.3971 8.53379 57.0751 8.83682C56.7579 9.13512 56.372 9.28427 55.9175 9.28427ZM66.4567 16.9547V10.6905H69.4823V21.5996H66.5775V19.6181H66.4638C66.2176 20.2573 65.8081 20.771 65.2351 21.1593C64.667 21.5475 63.9733 21.7417 63.1542 21.7417C62.425 21.7417 61.7834 21.5759 61.2295 21.2445C60.6755 20.9131 60.2422 20.4419 59.9297 19.8311C59.622 19.2203 59.4657 18.4888 59.461 17.6365V10.6905H62.4866V17.0968C62.4913 17.7407 62.6641 18.2497 63.005 18.6238C63.3459 18.9978 63.8029 19.1848 64.3758 19.1848C64.7404 19.1848 65.0813 19.102 65.3985 18.9363C65.7157 18.7658 65.9714 18.5149 66.1655 18.1834C66.3644 17.852 66.4615 17.4424 66.4567 16.9547ZM80.5791 13.8013L77.8092 13.9718C77.7619 13.735 77.6601 13.522 77.5038 13.3326C77.3476 13.1384 77.1416 12.9846 76.8859 12.8709C76.635 12.7525 76.3343 12.6934 75.9839 12.6934C75.5152 12.6934 75.1198 12.7928 74.7979 12.9917C74.4759 13.1858 74.3149 13.4462 74.3149 13.7729C74.3149 14.0333 74.4191 14.2535 74.6274 14.4334C74.8357 14.6133 75.1932 14.7578 75.6999 14.8667L77.6743 15.2644C78.7349 15.4822 79.5256 15.8326 80.0464 16.3155C80.5673 16.7985 80.8277 17.4329 80.8277 18.2189C80.8277 18.9339 80.617 19.5613 80.1956 20.101C79.7789 20.6408 79.206 21.0622 78.4768 21.3652C77.7524 21.6635 76.9167 21.8127 75.9697 21.8127C74.5256 21.8127 73.375 21.512 72.518 20.9107C71.6658 20.3046 71.1662 19.4808 71.0195 18.4391L73.9953 18.2828C74.0853 18.7232 74.3031 19.0594 74.6487 19.2914C74.9944 19.5186 75.4371 19.6323 75.9768 19.6323C76.5071 19.6323 76.9333 19.5305 77.2552 19.3269C77.582 19.1185 77.7477 18.851 77.7524 18.5243C77.7477 18.2497 77.6317 18.0248 77.4044 17.8496C77.1771 17.6697 76.8267 17.5324 76.3533 17.4377L74.4641 17.0613C73.3987 16.8482 72.6056 16.4789 72.0848 15.9533C71.5687 15.4277 71.3106 14.7578 71.3106 13.9434C71.3106 13.2426 71.5 12.6389 71.8788 12.1323C72.2624 11.6257 72.7998 11.235 73.491 10.9604C74.1871 10.6858 75.0015 10.5485 75.9342 10.5485C77.3121 10.5485 78.3963 10.8397 79.1871 11.4221C79.9825 12.0044 80.4465 12.7975 80.5791 13.8013ZM88.1354 10.6905V12.9632H81.5658V10.6905H88.1354ZM83.0573 8.07688H86.0829V18.2473C86.0829 18.5267 86.1255 18.7445 86.2107 18.9007C86.2959 19.0523 86.4143 19.1588 86.5658 19.2203C86.7221 19.2819 86.902 19.3127 87.1056 19.3127C87.2476 19.3127 87.3897 19.3008 87.5317 19.2772C87.6738 19.2488 87.7827 19.2275 87.8584 19.2132L88.3343 21.4647C88.1828 21.512 87.9697 21.5665 87.6951 21.628C87.4205 21.6943 87.0867 21.7346 86.6937 21.7488C85.9645 21.7772 85.3253 21.6801 84.7761 21.4576C84.2315 21.235 83.8078 20.8894 83.5047 20.4206C83.2017 19.9519 83.0526 19.36 83.0573 18.6451V8.07688Z" fill="#667080"/>
</svg>
