<svg width="24" height="24" viewBox="0 0 24 24" fill="none" xmlns="http://www.w3.org/2000/svg">
<path d="M14.1777 3.46634L15.8359 6.87504C16.0631 7.3429 16.6704 7.80788 17.1853 7.89341L20.2485 8.44261C22.21 8.78997 22.6457 10.2178 21.2252 11.615L18.8058 13.9813C18.4018 14.3779 18.1618 15.1624 18.2867 15.716L18.9354 18.6851C19.4451 21.0292 18.1952 21.9242 16.1464 20.6786L13.2844 18.9382C12.7632 18.6202 11.909 18.6177 11.388 18.9168L8.48919 20.5846C6.41416 21.7766 5.18177 20.8557 5.74547 18.5259L6.46549 15.5776C6.59995 15.0265 6.38823 14.2365 5.9916 13.8326L3.61184 11.4088C2.22357 9.98374 2.69134 8.56695 4.65682 8.26133L7.72566 7.78633C8.2438 7.7019 8.86212 7.2634 9.09561 6.79651L10.832 3.42018C11.7798 1.60172 13.2826 1.62162 14.1777 3.46634Z" fill="#667080"/>
</svg>
